PathFileType	4	(X/Y/Z)	/Users/itak/Documents/Research/Walk-IL/dataset/trc/00110_00007.trc
DataRate	CameraRate	NumFrames	NumMarkers	Units	OrigDataRate	OrigDataStartFrame	OrigNumFrames
100.000000	100.000000	4	53	mm	100.000000	222	594
Frame#	Time	RPSI			LPSI			L3			STRN			T10			C7			CLAV			RBAK			LBAK			LSHO			LUPA			LAEL			LAOL			LWTS			LWPS			LFRA			LIFD			LHPS			LHTS			RSHO			RUPA			RAEL			RAOL			RWTS			RWPS			RFRA			RIFD			RHTS			RHPS			RBHD			LFHD			RFHD			LBHD			LHIP			RHIP			RASI			LASI			LKNE			LTHI			LANK			LTIP			LTOE			LMT1			LMT5			LHEE			RKNE			RTHI			RANK			RTIP			RTOE			RMT1			RMT5			RHEE			
		X1	Y1	Z1	X2	Y2	Z2	X3	Y3	Z3	X4	Y4	Z4	X5	Y5	Z5	X6	Y6	Z6	X7	Y7	Z7	X8	Y8	Z8	X9	Y9	Z9	X10	Y10	Z10	X11	Y11	Z11	X12	Y12	Z12	X13	Y13	Z13	X14	Y14	Z14	X15	Y15	Z15	X16	Y16	Z16	X17	Y17	Z17	X18	Y18	Z18	X19	Y19	Z19	X20	Y20	Z20	X21	Y21	Z21	X22	Y22	Z22	X23	Y23	Z23	X24	Y24	Z24	X25	Y25	Z25	X26	Y26	Z26	X27	Y27	Z27	X28	Y28	Z28	X29	Y29	Z29	X30	Y30	Z30	X31	Y31	Z31	X32	Y32	Z32	X33	Y33	Z33	X34	Y34	Z34	X35	Y35	Z35	X36	Y36	Z36	X37	Y37	Z37	X38	Y38	Z38	X39	Y39	Z39	X40	Y40	Z40	X41	Y41	Z41	X42	Y42	Z42	X43	Y43	Z43	X44	Y44	Z44	X45	Y45	Z45	X46	Y46	Z46	X47	Y47	Z47	X48	Y48	Z48	X49	Y49	Z49	X50	Y50	Z50	X51	Y51	Z51	X52	Y52	Z52	X53	Y53	Z53	

223	2.22	278.0777282714844	1109.93798828125	-307.2159118652344	297.7586059570312	1114.682861328125	-441.2194519042969	279.7492370605469	1155.331787109375	-382.1527709960938	529.0447998046875	1349.068359375	-359.6288452148438	271.37841796875	1313.905639648438	-396.8853149414062	337.6878967285156	1601.586791992188	-418.8035583496094	508.5104675292969	1487.067504882812	-372.2235412597656	257.3164672851562	1425.469604492188	-335.5797729492188	348.2223510742188	1577.975341796875	-519.260986328125	447.1112365722656	1557.923095703125	-567.4755249023438	441.0769348144531	1424.9326171875	-637.4728393554688	469.1441955566406	1205.492553710938	-648.175048828125	387.4622192382812	1191.916625976562	-616.12646484375	561.591064453125	957.2630615234375	-562.5225830078125	494.5556335449219	923.8508911132812	-612.7579956054688	490.7963256835938	1090.173950195312	-641.4244995117188	573.4573364257812	765.6294555664062	-526.5264282226562	526.4505615234375	851.0841674804688	-600.728515625	584.4006958007812	869.12841796875	-563.776611328125	358.1256408691406	1586.102294921875	-227.3350219726562	324.3855590820312	1515.44873046875	-167.7244262695312	285.4227905273438	1222.172973632812	-158.3270721435547	314.204833984375	1220.26025390625	-251.5205383300781	420.0666809082031	979.2368774414062	-113.1515121459961	340.4164123535156	961.7993774414062	-113.2172164916992	299.4544677734375	1147.805419921875	-134.563720703125	452.0067749023438	784.803955078125	-114.6494903564453	445.6331176757812	871.4541625976562	-94.59516143798828	373.5299377441406	862.8468627929688	-93.67742156982422	366.5475769042969	1762.859008789062	-328.265380859375	531.7590942382812	1838.221801757812	-452.9540405273438	523.1165771484375	1845.683227539062	-323.8786926269531	365.3633728027344	1758.728759765625	-463.6081848144531	404.0500793457031	1025.477416992188	-536.6270751953125	397.8591003417969	1023.40087890625	-173.1267547607422	478.1702575683594	1098.865234375	-222.7813262939453	506.4609985351562	1089.1787109375	-484.88037109375	454.0800476074219	524.7601928710938	-486.8294372558594	427.8562927246094	668.820068359375	-519.634521484375	267.6979370117188	37.89096069335938	-472.3908386230469	322.7218627929688	282.1881103515625	-509.3802490234375	499.7298889160156	34.90568161010742	-410.8143310546875	416.6090698242188	40.84122085571289	-378.8258056640625	394.1326599121094	34.89797973632812	-495.8812255859375	196.6706695556641	43.55104827880859	-412.56298828125	573.84765625	564.8367309570312	-187.8407897949219	481.8541870117188	827.2763671875	-161.6964874267578	578.9690551757812	37.75199127197266	-186.1484680175781	577.0225830078125	428.4412841796875	-171.5972747802734	807.4403686523438	78.069580078125	-232.7930603027344	747.87841796875	62.68819808959961	-275.7413024902344	711.4521484375	53.1146125793457	-162.5738220214844	521.1181030273438	37.92196273803711	-236.4581604003906	
224	2.23	271.5400085449219	1111.239135742188	-307.9358215332031	291.1402893066406	1116.150756835938	-441.9261779785156	273.0128173828125	1156.7919921875	-382.7653198242188	522.4005737304688	1350.622924804688	-360.0795593261719	264.7113952636719	1315.400756835938	-397.2306823730469	331.1934814453125	1603.072265625	-419.3509216308594	501.9124450683594	1488.59130859375	-372.7264099121094	250.7658081054688	1427.174072265625	-335.8858947753906	341.5904235839844	1579.334716796875	-519.7675170898438	440.41259765625	1559.182006835938	-567.9996337890625	434.418212890625	1426.21728515625	-637.9608154296875	462.6004333496094	1206.942993164062	-648.9205322265625	380.9723205566406	1193.323120117188	-616.7222290039062	554.21533203125	957.7976684570312	-564.8278198242188	486.89599609375	925.0372314453125	-615.1185302734375	483.8779296875	1091.542236328125	-642.7570190429688	565.1375732421875	765.7909545898438	-530.1415405273438	518.44287109375	852.0518798828125	-603.6688232421875	576.5598754882812	869.5193481445312	-566.6917724609375	351.8327941894531	1587.942138671875	-227.8794097900391	318.04541015625	1517.423217773438	-168.1506958007812	278.3016357421875	1224.314819335938	-158.7527160644531	306.9651489257812	1222.324340820312	-252.0573883056641	411.637939453125	980.4478149414062	-114.4329681396484	331.8942260742188	963.5518798828125	-114.0986175537109	292.0287780761719	1149.848388671875	-135.0802917480469	442.2832336425781	785.8026733398438	-116.6436233520508	436.5912170410156	872.4237670898438	-96.31522369384766	364.4634704589844	864.3187255859375	-94.96481323242188	360.7297058105469	1764.816284179688	-329.3113098144531	525.9773559570312	1839.176025390625	-454.587646484375	517.5824584960938	1847.144897460938	-325.5307922363281	359.2560729980469	1760.159057617188	-464.6600646972656	397.4545593261719	1027.088134765625	-537.4588012695312	391.5511474609375	1024.706909179688	-174.0031585693359	471.7457275390625	1100.279174804688	-223.59130859375	499.8053283691406	1090.926635742188	-485.7147521972656	448.8150634765625	526.548828125	-487.9627990722656	422.0224609375	670.39501953125	-520.63134765625	267.70947265625	37.89133834838867	-472.4506530761719	319.9641723632812	282.8785095214844	-509.8592224121094	499.7708129882812	35.01026153564453	-410.8764343261719	416.6316223144531	40.90156936645508	-378.8927917480469	394.1810302734375	34.87246704101562	-495.9187622070312	196.7471313476562	43.43346405029297	-412.6189575195312	568.646240234375	566.5750122070312	-188.4007415771484	476.3280639648438	828.9661254882812	-163.1727905273438	562.786865234375	38.98495101928711	-185.2234954833984	568.8388061523438	429.6604309082031	-171.8128967285156	791.888671875	79.59682464599609	-228.5839080810547	733.0259399414062	63.52243804931641	-272.4841918945312	694.8759765625	54.58839416503906	-159.8883056640625	505.5504150390625	38.79755783081055	-236.2775268554688	
225	2.24	265.2196044921875	1112.6142578125	-308.5747680664062	284.6683349609375	1117.630493164062	-442.5760803222656	266.53369140625	1158.279174804688	-383.3136901855469	515.8248291015625	1352.265991210938	-360.5440673828125	258.1029052734375	1316.863891601562	-397.5050964355469	324.5901184082031	1604.554565429688	-419.7442016601562	495.2996826171875	1490.203857421875	-373.2122192382812	244.2470855712891	1428.8330078125	-336.0132751464844	334.7808837890625	1580.730346679688	-520.1198120117188	433.5014343261719	1560.567626953125	-568.4614868164062	427.5051574707031	1427.62939453125	-638.4014282226562	455.7771911621094	1208.533325195312	-649.6119384765625	374.2709655761719	1194.860107421875	-617.1221923828125	546.729248046875	958.4921875	-567.19189453125	479.0359497070312	926.3796997070312	-617.4083862304688	476.7118530273438	1093.054809570312	-644.047607421875	556.7986450195312	766.123779296875	-533.85595703125	510.2759094238281	853.2024536132812	-606.6055297851562	568.6046142578125	870.07421875	-569.7009887695312	345.5678405761719	1589.771362304688	-228.2984924316406	311.8087158203125	1519.381225585938	-168.4250030517578	271.3394165039062	1226.457763671875	-158.9292144775391	299.7961730957031	1224.36083984375	-252.3880157470703	403.2881469726562	981.5948486328125	-115.5770568847656	323.4345092773438	965.2977294921875	-114.7934722900391	284.7803344726562	1151.904418945312	-135.3699188232422	432.5162048339844	786.7304077148438	-118.5785293579102	427.5669555664062	873.3068237304688	-97.94802856445312	355.4097595214844	865.756591796875	-96.11457061767578	354.8131713867188	1766.838745117188	-330.2061767578125	520.0850830078125	1840.143188476562	-456.0988464355469	511.9731750488281	1848.589233398438	-327.0493469238281	353.0155029296875	1761.685546875	-465.5662231445312	391.0105285644531	1028.660278320312	-538.2081909179688	385.4790649414062	1026.134887695312	-174.7568969726562	465.5053100585938	1101.782592773438	-224.3565063476562	493.29736328125	1092.712158203125	-486.529296875	443.570068359375	528.2918090820312	-489.0787658691406	416.1852111816406	671.94287109375	-521.6092529296875	267.7239074707031	37.87850570678711	-472.5578308105469	317.2684326171875	283.5876770019531	-510.3397521972656	499.7978210449219	35.11240768432617	-410.9317321777344	416.6601257324219	40.99762344360352	-378.9954833984375	394.2444763183594	34.82783889770508	-495.9983215332031	196.8264617919922	43.37184524536133	-412.727783203125	563.1240234375	568.206787109375	-188.9810333251953	470.7354125976562	830.641357421875	-164.6455688476562	545.2262573242188	40.37881469726562	-184.5302124023438	560.1469116210938	430.8399047851562	-172.0632629394531	775.0447387695312	80.37969970703125	-224.6168365478516	716.8694458007812	63.88565444946289	-269.4411315917969	676.9785766601562	55.70827102661133	-157.4512786865234	488.6299438476562	40.10827255249023	-236.3035888671875	
226	2.25	259.0768737792969	1114.011474609375	-309.1347351074219	278.3323669433594	1119.072998046875	-443.1654968261719	260.2629089355469	1159.74755859375	-383.8016052246094	509.3164672851562	1353.937744140625	-361.0357666015625	251.5744171142578	1318.258544921875	-397.7112121582031	317.8998718261719	1605.99462890625	-419.9967041015625	488.6795959472656	1491.846313476562	-373.6978149414062	237.75390625	1430.410888671875	-335.9869384765625	327.8242492675781	1582.121948242188	-520.3342895507812	426.4089660644531	1562.033081054688	-568.8709106445312	420.3589782714844	1429.123046875	-638.8134155273438	448.6604614257812	1210.204223632812	-650.2840576171875	367.3463745117188	1196.479248046875	-617.3607788085938	539.1406860351562	959.3211059570312	-569.5960693359375	470.9921875	927.8294067382812	-619.6035766601562	469.2898864746094	1094.653076171875	-645.3104248046875	548.4862060546875	766.6195068359375	-537.5947875976562	501.9722900390625	854.4884643554688	-609.4866943359375	560.5615234375	870.7803955078125	-572.7674560546875	339.3410339355469	1591.532958984375	-228.6062164306641	305.6771240234375	1521.265258789062	-168.5673065185547	264.5293273925781	1228.540405273438	-158.8909149169922	292.712158203125	1226.319091796875	-252.5296020507812	395.0322265625	982.6453247070312	-116.5716323852539	315.0584106445312	966.988037109375	-115.3017807006836	277.6922912597656	1153.916137695312	-135.4543304443359	422.7437744140625	787.5585327148438	-120.3969497680664	418.5925903320312	874.084228515625	-99.45314788818359	346.4019165039062	867.1255493164062	-97.10009765625	348.7900390625	1768.864013671875	-330.9595947265625	514.06396484375	1841.093872070312	-457.4844665527344	506.2674865722656	1849.977661132812	-328.4302368164062	346.6407470703125	1763.25244140625	-466.3324279785156	384.6827087402344	1030.161254882812	-538.882568359375	379.6183471679688	1027.6240234375	-175.3932952880859	459.4232482910156	1103.321655273438	-225.081298828125	486.9236450195312	1094.478759765625	-487.3262939453125	438.3114624023438	529.9586791992188	-490.1568908691406	410.329345703125	673.4297485351562	-522.5577392578125	267.7373352050781	37.85314559936523	-472.6876220703125	314.5999450683594	284.2733764648438	-510.785888671875	499.8073425292969	35.20573043823242	-410.9789123535156	416.6963806152344	41.11468887329102	-379.1194458007812	394.3167724609375	34.77751541137695	-496.1022644042969	196.9040069580078	43.32600021362305	-412.8574523925781	557.3330078125	569.6826171875	-189.6012420654297	465.0994262695312	832.2613525390625	-166.0785064697266	526.380126953125	41.95425415039062	-184.0507659912109	551.0096435546875	431.9551391601562	-172.3728637695312	756.9690551757812	80.48060607910156	-221.0357360839844	699.4279174804688	63.82671737670898	-266.7245178222656	657.864013671875	56.49206161499023	-155.3327178955078	470.4219360351562	41.85976028442383	-236.48095703125	
